HIERARCHY
ROOT Hips
{
	OFFSET 0.00000 0.00000 0.00000
	CHANNELS 6 Xposition Yposition Zposition Zrotation Yrotation Xrotation 
	JOINT LHipJoint
	{
		OFFSET 0 0 0
		CHANNELS 3 Zrotation Yrotation Xrotation
		JOINT LeftHip
		{
			OFFSET 1.75344 -1.53157 0.77399
			CHANNELS 3 Zrotation Yrotation Xrotation
			JOINT LeftKnee
			{
				OFFSET 2.25415 -6.19323 0.00000
				CHANNELS 3 Zrotation Yrotation Xrotation
				JOINT LeftAnkle
				{
					OFFSET 2.30342 -6.32861 0.00000
					CHANNELS 3 Zrotation Yrotation Xrotation
					JOINT LeftToe
					{
						OFFSET 0.10958 -0.30108 1.49206
						CHANNELS 3 Zrotation Yrotation Xrotation
						End Site
						{
							OFFSET 0.00000 -0.00000 0.77783
						}
					}
				}
			}
		}
	}
	JOINT RHipJoint
	{
		OFFSET 0 0 0
		CHANNELS 3 Zrotation Yrotation Xrotation
		JOINT RightHip
		{
			OFFSET -1.81912 -1.53156 0.77399
			CHANNELS 3 Zrotation Yrotation Xrotation
			JOINT RightKnee
			{
				OFFSET -2.22882 -6.12365 0.00000
				CHANNELS 3 Zrotation Yrotation Xrotation
				JOINT RightAnkle
				{
					OFFSET -2.21943 -6.09785 0.00000
					CHANNELS 3 Zrotation Yrotation Xrotation
					JOINT RightToe
					{
						OFFSET -0.18931 -0.52012 1.59379
						CHANNELS 3 Zrotation Yrotation Xrotation
						End Site
						{
							OFFSET -0.00000 -0.00000 0.84686
						}
					}
				}
			}
		}
	}
	JOINT lowerback
	{
		OFFSET 0 0 0
		CHANNELS 3 Zrotation Yrotation Xrotation
		JOINT Chest
		{
			OFFSET -0.00200 1.66634 -0.14248
			CHANNELS 3 Zrotation Yrotation Xrotation
			JOINT Chest2
			{
				OFFSET -0.00875 1.64542 0.09514
				CHANNELS 3 Zrotation Yrotation Xrotation
				JOINT lowerneck
				{
					OFFSET 0 0 0
					CHANNELS 3 Zrotation Yrotation Xrotation
					JOINT Neck
					{
						OFFSET 0.02257 1.59605 0.00839
						CHANNELS 3 Zrotation Yrotation Xrotation
						JOINT Head
						{
							OFFSET -0.10214 1.57530 -0.23335
							CHANNELS 3 Zrotation Yrotation Xrotation
							End Site
							{
								OFFSET -0.03588 1.60717 -0.08062
							}
						}
					}
				}
				JOINT LeftCollar
				{
					OFFSET 0 0 0
					CHANNELS 3 Zrotation Yrotation Xrotation
					JOINT LeftShoulder
					{
						OFFSET 2.54983 1.10186 0.40078
CHANNELS 3 Zrotation Xrotation Yrotation
						JOINT LeftElbow
						{
OFFSET 0 -4.288400 0.000000
CHANNELS 3 Zrotation Xrotation Yrotation
							JOINT LeftWrist
							{
OFFSET 0 -3.065520 -0.000000
CHANNELS 3 Zrotation Xrotation Yrotation
								JOINT lhand
								{
									OFFSET 0 0 0
CHANNELS 3 Zrotation Xrotation Yrotation
									JOINT LFingers
									{
OFFSET 0 -0.753040 0.000000
CHANNELS 3 Zrotation Xrotation Yrotation
										End Site
										{
OFFSET 0 -0.607120 0.000000
										}
									}
								}
								JOINT LThumb
								{
OFFSET 0 0.000000 0.000000
CHANNELS 3 Zrotation Xrotation Yrotation
									End Site
									{
OFFSET 0 -0.616390 0.616390
									}
								}
							}
						}
					}
				}
				JOINT RightCollar
				{
					OFFSET 0 0 0
					CHANNELS 3 Zrotation Yrotation Xrotation
					JOINT RightShoulder
					{
						OFFSET -2.60909 1.35448 0.21802
CHANNELS 3 Zrotation Xrotation Yrotation
						JOINT RightElbow
						{
OFFSET 0 -4.521720 -0.000000
CHANNELS 3 Zrotation Xrotation Yrotation
							JOINT RightWrist
							{
OFFSET 0 -2.891400 0.000000
CHANNELS 3 Zrotation Xrotation Yrotation
								JOINT rhand
								{
									OFFSET 0 0 0
CHANNELS 3 Zrotation Xrotation Yrotation
									JOINT RFingers
									{
OFFSET 0 -0.680540 0.000000
CHANNELS 3 Zrotation Xrotation Yrotation
										End Site
										{
OFFSET 0 -0.548670 0.000000
										}
									}
								}
								JOINT RThumb
								{
OFFSET 0 0.000000 0.000000
CHANNELS 3 Zrotation Xrotation Yrotation
									End Site
									{
OFFSET 0 -0.557050 0.557050
									}
								}
							}
						}
					}
				}
			}
		}
	}
}
MOTION
Frames: 5
Frame Time: 0.008333333333333333
9.182229 15.268825 -36.590292 -2.645155 -69.824238 3.811413 0.000000 0.000000 0.000000 -13.659144 -29.027921 -20.185933 5.094602 13.489553 41.229776 -1.911060 -24.605710 17.205376 3.924340 12.002670 35.816206 0.000000 0.000000 0.000000 28.529319 13.770971 -0.500850 -2.016733 -8.900763 25.485437 -0.353741 -18.977738 -29.502837 -0.004614 0.407676 -1.120259 3.102492 0.394314 10.449339 0.347995 0.997526 -3.533731 -1.560491 0.301921 -9.622370 10.434144 17.606364 -1.310974 -7.678785 24.118029 11.087176 -2.203876 11.881942 5.752138 0.000000 0.000000 0.000000 2.962119 -1.521458 -23.025301 17.689097 -27.757123 4.403524 4.220680 12.286410 26.787119 0.000000 0.000000 0.000000 -7.125000 0.000000 0.000000 -15.382207 3.934749 -14.845658 0.000000 0.000000 0.000000 -15.936542 25.483628 31.454403 -18.829062 -29.205718 -4.947144 -12.748322 35.544256 52.892170 0.000000 0.000000 0.000000 7.125000 0.000000 0.000000 66.072282 75.983796 -52.302790
9.300776 15.258511 -36.829596 -2.029978 -63.658767 3.063210 0.000000 0.000000 0.000000 -14.612058 -24.897471 -22.643251 5.181011 13.584759 41.598877 -2.449560 -26.595312 7.462747 0.201057 2.395607 6.623656 0.000000 0.000000 0.000000 29.683229 13.031308 -1.184637 -2.026511 -8.921060 25.548724 -0.346119 -21.544455 -32.657043 -0.489906 -4.484756 12.445104 3.187977 0.021190 10.896331 0.541485 0.541885 -3.330533 -1.320313 0.085347 -9.686114 9.245122 16.640811 -2.433426 -7.763445 22.840356 11.660659 -2.121797 11.167376 5.874952 0.000000 0.000000 0.000000 1.890911 -1.371704 -17.021910 16.290654 -25.913028 3.772106 6.607932 12.898589 26.175924 0.000000 0.000000 0.000000 -7.125000 0.000000 0.000000 -13.968283 4.305987 -13.289543 0.000000 0.000000 0.000000 -16.851528 24.893113 31.150824 -20.040756 -30.691182 -5.552288 -14.751990 37.388717 51.921243 0.000000 0.000000 0.000000 7.125000 0.000000 0.000000 61.329842 76.441019 -48.508628
9.385481 15.274321 -36.990817 -1.629338 -59.221232 2.659514 0.000000 0.000000 0.000000 -16.372023 -19.284321 -23.967107 5.384458 13.804137 42.458478 -0.517516 -22.119547 -11.383731 2.744453 -10.268868 -29.852355 0.000000 0.000000 0.000000 29.848531 11.214601 -2.502662 -2.029813 -8.927938 25.570164 -0.387862 -22.476418 -34.075972 -0.730923 -5.462178 15.231471 3.726053 0.003357 10.746137 0.340143 0.573006 -3.351696 -1.844245 0.062146 -9.615930 8.988095 15.637629 -2.734149 -7.801275 21.495634 11.937579 -2.220082 10.489503 5.872846 0.000000 0.000000 0.000000 1.857954 -0.171434 -14.171727 15.338769 -24.615924 3.365804 3.468646 18.007065 25.192817 0.000000 0.000000 0.000000 -7.125000 0.000000 0.000000 -15.830658 5.531835 -14.821109 0.000000 0.000000 0.000000 -15.923334 24.527580 29.878195 -21.435233 -32.332853 -6.281143 -15.282458 35.439942 50.759758 0.000000 0.000000 0.000000 7.125000 0.000000 0.000000 56.558707 76.181888 -44.045852
9.458266 15.292944 -37.128699 -1.045013 -55.417092 2.303053 0.000000 0.000000 0.000000 -17.563165 -14.447115 -23.944961 5.708704 14.139984 43.801170 1.462775 -8.743102 -21.680684 3.309359 -11.178794 -32.886454 0.000000 0.000000 0.000000 29.792975 9.900329 -3.778765 -2.032080 -8.932531 25.584550 -0.249691 -23.641776 -34.756821 -1.016382 -6.414119 17.990822 3.466741 -0.147746 10.212673 0.435928 0.319859 -3.451206 -1.545362 -0.039103 -9.426970 8.121733 14.830027 -2.946189 -7.533154 20.420374 12.203009 -2.131844 9.937752 5.781750 0.000000 0.000000 0.000000 1.305254 2.626218 -15.189135 15.660856 -25.058474 3.501131 2.927369 16.559409 25.734754 0.000000 0.000000 0.000000 -7.125000 0.000000 0.000000 -16.145993 5.052897 -15.294173 0.000000 0.000000 0.000000 -14.984423 23.325129 29.698715 -22.735492 -33.797959 -6.990774 -15.510229 33.569445 51.737789 0.000000 0.000000 0.000000 7.125000 0.000000 0.000000 60.207795 76.670916 -47.746603
9.514011 15.282563 -37.259770 -0.747810 -52.101182 1.420315 0.000000 0.000000 0.000000 -18.367573 -8.123937 -23.169917 6.120005 14.543580 45.461358 1.915533 -2.146416 -25.598413 1.897258 -8.635630 -24.670163 0.000000 0.000000 0.000000 30.124585 8.876133 -3.791583 -2.028520 -8.925143 25.561531 -0.236434 -24.796733 -36.176158 -1.331099 -7.305671 20.624175 2.744263 -0.114537 10.767105 0.555105 0.296058 -3.523569 -1.008126 -0.009050 -9.834090 7.349525 13.953339 -3.212639 -7.016642 19.217275 12.549313 -1.979491 9.337830 5.711149 0.000000 0.000000 0.000000 1.017714 5.698262 -15.866026 16.489213 -26.179477 3.859307 1.406447 16.464430 25.427156 0.000000 0.000000 0.000000 -7.125000 0.000000 0.000000 -17.045749 5.457327 -16.093258 0.000000 0.000000 0.000000 -13.291282 22.618529 29.640255 -24.504264 -35.692712 -7.998972 -15.497272 31.687541 53.221207 0.000000 0.000000 0.000000 7.125000 0.000000 0.000000 66.359657 77.147620 -53.807731
